<?xml version="1.0"?>
<mxfile host="Electron" modified="2022-06-09T17:41:01.991Z" agent="5.0 (X11; Linux x86_64) AppleWebKit/537.36 (KHTML, like Gecko) draw.io/18.1.3 Chrome/100.0.4896.143 Electron/18.2.3 Safari/537.36" etag="kkrY7rP8tOz_v_aeqihF" version="18.1.3">
  <diagram id="xNJTso8YZ5cCCSKc_6qQ" name="Page-1">
    <mxGraphModel dx="2" dy="1" grid="1" gridSize="10" guides="1" tooltips="1" connect="1" arrows="1" fold="1" page="1" pageScale="1" pageWidth="850" pageHeight="1100" math="0" shadow="0">
      <root>
        <mxCell id="0"/>
        <mxCell id="1" parent="0"/>
        <mxCell id="dtCyncwRvurCg8-jOm-9-1" value="&#x5BA2;&#x6237;&#x865A;&#x62DF;&#x5730;&#x5740;&#x7A7A;&#x95F4;&lt;br&gt;Guest Virtual Address (GVA) Space" style="rounded=0;whiteSpace=wrap;html=1;fillColor=#f8cecc;strokeColor=#b85450;sketch=1;" parent="1" vertex="1">
          <mxGeometry x="80" y="170" width="200" height="30" as="geometry"/>
        </mxCell>
        <mxCell id="dtCyncwRvurCg8-jOm-9-2" value="0" style="text;html=1;align=left;verticalAlign=middle;resizable=0;points=[];autosize=1;strokeColor=none;fillColor=none;sketch=1;" parent="1" vertex="1">
          <mxGeometry x="80" y="150" width="20" height="20" as="geometry"/>
        </mxCell>
        <mxCell id="dtCyncwRvurCg8-jOm-9-3" value="2^48 B" style="text;html=1;align=left;verticalAlign=middle;resizable=0;points=[];autosize=1;strokeColor=none;fillColor=none;sketch=1;" parent="1" vertex="1">
          <mxGeometry x="280" y="150" width="50" height="20" as="geometry"/>
        </mxCell>
        <mxCell id="dtCyncwRvurCg8-jOm-9-4" value="&#x865A;&#x62DF;&#x865A;&#x62DF;&#x5730;&#x5740;&#x7A7A;&#x95F4;&lt;br&gt;Host Virtual Address (HVA) Space" style="rounded=0;whiteSpace=wrap;html=1;fillColor=#dae8fc;strokeColor=#6c8ebf;sketch=1;" parent="1" vertex="1">
          <mxGeometry x="80" y="250" width="200" height="30" as="geometry"/>
        </mxCell>
        <mxCell id="dtCyncwRvurCg8-jOm-9-5" value="0" style="text;html=1;align=left;verticalAlign=middle;resizable=0;points=[];autosize=1;strokeColor=none;fillColor=none;sketch=1;" parent="1" vertex="1">
          <mxGeometry x="80" y="280" width="20" height="20" as="geometry"/>
        </mxCell>
        <mxCell id="dtCyncwRvurCg8-jOm-9-6" value="2^48 B" style="text;html=1;align=left;verticalAlign=middle;resizable=0;points=[];autosize=1;strokeColor=none;fillColor=none;sketch=1;" parent="1" vertex="1">
          <mxGeometry x="280" y="280" width="50" height="20" as="geometry"/>
        </mxCell>
        <mxCell id="dtCyncwRvurCg8-jOm-9-7" value="" style="curved=1;endArrow=classic;html=1;rounded=0;exitX=0;exitY=1;exitDx=0;exitDy=0;entryX=0;entryY=0;entryDx=0;entryDy=0;dashed=1;fillColor=#d5e8d4;strokeColor=#82b366;sketch=1;" parent="1" source="dtCyncwRvurCg8-jOm-9-1" target="dtCyncwRvurCg8-jOm-9-4" edge="1">
          <mxGeometry width="50" height="50" relative="1" as="geometry">
            <mxPoint x="170" y="340" as="sourcePoint"/>
            <mxPoint x="220" y="290" as="targetPoint"/>
            <Array as="points">
              <mxPoint x="70" y="210"/>
              <mxPoint x="90" y="230"/>
            </Array>
          </mxGeometry>
        </mxCell>
        <mxCell id="dtCyncwRvurCg8-jOm-9-8" value="" style="curved=1;endArrow=classic;html=1;rounded=0;exitX=1;exitY=1;exitDx=0;exitDy=0;entryX=1;entryY=0;entryDx=0;entryDy=0;dashed=1;fillColor=#d5e8d4;strokeColor=#82b366;sketch=1;" parent="1" source="dtCyncwRvurCg8-jOm-9-1" target="dtCyncwRvurCg8-jOm-9-4" edge="1">
          <mxGeometry width="50" height="50" relative="1" as="geometry">
            <mxPoint x="290" y="200" as="sourcePoint"/>
            <mxPoint x="290" y="240" as="targetPoint"/>
            <Array as="points">
              <mxPoint x="270" y="210"/>
              <mxPoint x="290" y="230"/>
            </Array>
          </mxGeometry>
        </mxCell>
        <mxCell id="dtCyncwRvurCg8-jOm-9-9" value="&#x7EBF;&#x6027;&#x6620;&#x5C04;&#xFF08;&#x52A0;&#x504F;&#x79FB;&#xFF09;&lt;br&gt;HVA = GVA + offset" style="text;html=1;align=center;verticalAlign=middle;resizable=0;points=[];autosize=1;strokeColor=none;fillColor=none;" parent="1" vertex="1">
          <mxGeometry x="120" y="210" width="120" height="30" as="geometry"/>
        </mxCell>
        <mxCell id="dtCyncwRvurCg8-jOm-9-10" value="&lt;font color=&quot;#ffffff&quot;&gt;&#x7559;&#x767D;&lt;/font&gt;" style="rounded=0;whiteSpace=wrap;html=1;strokeColor=none;fillColor=none;" parent="1" vertex="1">
          <mxGeometry x="30" y="150" width="50" height="20" as="geometry"/>
        </mxCell>
      </root>
    </mxGraphModel>
  </diagram>
</mxfile>
